<svg width="52" height="52" viewBox="0 0 52 52" fill="none" xmlns="http://www.w3.org/2000/svg">
<circle cx="26" cy="26" r="26" fill="black"/>
<path d="M27.2908 10L38.1068 37.3376C38.5519 38.384 39.0267 39.1106 39.5312 39.5176C40.0653 39.8955 40.5549 40.0989 41 40.128V41C40.2285 40.9419 39.2938 40.9128 38.1958 40.9128C37.1276 40.8837 36.0297 40.8692 34.9021 40.8692C33.5964 40.8692 32.3798 40.8837 31.2522 40.9128C30.1246 40.9128 29.2047 40.9419 28.4926 41V40.128C30.0059 40.0699 30.9703 39.8228 31.3858 39.3868C31.8012 38.9217 31.7122 37.948 31.1187 36.4655L23.2849 15.7553L24.0861 14.7961L16.9644 32.8903C16.4006 34.3436 16.0593 35.5354 15.9407 36.4655C15.822 37.3957 15.8961 38.1224 16.1632 38.6456C16.4303 39.1688 16.8754 39.5466 17.4985 39.7792C18.1217 39.9827 18.8932 40.0989 19.8131 40.128V41C18.8635 40.9419 17.9436 40.9128 17.0534 40.9128C16.1632 40.8837 15.273 40.8692 14.3828 40.8692C13.73 40.8692 13.1068 40.8837 12.5134 40.9128C11.9496 40.9128 11.4451 40.9419 11 41V40.128C11.6528 39.9827 12.2908 39.6048 12.9139 38.9944C13.5668 38.384 14.1899 37.323 14.7834 35.8115L24.9763 10C25.3323 10.0291 25.7181 10.0436 26.1335 10.0436C26.549 10.0436 26.9347 10.0291 27.2908 10ZM31.1632 28.443V29.3151H17.8991L18.3442 28.443H31.1632Z" fill="white"/>
</svg>
