<svg width="52" height="52" viewBox="0 0 52 52" fill="none" xmlns="http://www.w3.org/2000/svg">
<circle cx="26" cy="26" r="26" fill="black"/>
<path d="M36.4398 33.8462L37 34C36.834 35.1282 36.5746 36.0923 36.2219 36.8923C35.8692 37.7128 35.4127 38.3487 34.8525 38.8C34.4168 39.1487 33.8462 39.4359 33.1407 39.6615C32.456 39.8872 31.6883 40 30.8376 40C29.6964 40 28.576 39.8256 27.4763 39.4769C26.3974 39.1282 25.2977 38.6974 24.1773 38.1846C23.0568 37.6923 21.8742 37.2103 20.6292 36.7385C20.484 36.6974 20.3387 36.6462 20.1935 36.5846C20.069 36.5436 19.9653 36.5231 19.8823 36.5231C19.488 36.7077 19.0523 36.8615 18.5751 36.9846C18.1186 37.1077 17.6829 37.1692 17.2679 37.1692C16.853 37.1692 16.5002 37.1077 16.2097 36.9846C15.94 36.8615 15.8051 36.6564 15.8051 36.3692C15.8051 35.8154 16.3757 35.5385 17.5169 35.5385C18.2431 35.5385 19.0316 35.6821 19.8823 35.9692C20.65 35.7641 21.3036 35.5282 21.843 35.2615C22.4032 35.0154 22.9738 34.7795 23.5548 34.5538C24.1565 34.3282 24.8827 34.1846 25.7334 34.1231L25.7645 34.6154C25.1006 34.6769 24.53 34.7897 24.0528 34.9538C23.5963 35.1385 23.1295 35.3333 22.6522 35.5385C22.175 35.7436 21.6148 35.9385 20.9716 36.1231C22.4447 36.2256 23.8142 36.3282 25.0798 36.4308C26.3455 36.5538 27.5178 36.6256 28.5968 36.6462C29.6757 36.6872 30.6509 36.6462 31.5223 36.5231C32.8087 36.3795 33.8254 36.1026 34.5724 35.6923C35.3193 35.2821 35.9418 34.6667 36.4398 33.8462ZM25.0176 12C27.217 12 29.1362 12.441 30.7754 13.3231C32.4353 14.2051 33.7217 15.4769 34.6346 17.1385C35.5476 18.7795 36.0041 20.7795 36.0041 23.1385C36.0041 25.4359 35.5372 27.4462 34.6035 29.1692C33.6698 30.8923 32.3627 32.2359 30.682 33.2C29.0221 34.1641 27.1236 34.6462 24.9865 34.6462C22.7871 34.6462 20.8575 34.2051 19.1976 33.3231C17.5584 32.441 16.2824 31.1692 15.3694 29.5077C14.4565 27.8462 14 25.8462 14 23.5077C14 21.2103 14.4668 19.2 15.4005 17.4769C16.355 15.7538 17.6518 14.4103 19.2909 13.4462C20.9508 12.4821 22.8597 12 25.0176 12ZM24.8931 12.5538C23.7312 12.5538 22.7145 13.0154 21.843 13.9385C20.9923 14.8615 20.3284 16.1333 19.8511 17.7538C19.3947 19.3744 19.1664 21.2513 19.1664 23.3846C19.1664 25.559 19.4258 27.4564 19.9445 29.0769C20.484 30.6769 21.1998 31.9179 22.092 32.8C23.005 33.6615 24.0113 34.0923 25.111 34.0923C26.2729 34.0923 27.2792 33.6308 28.1299 32.7077C29.0014 31.7846 29.6653 30.5128 30.1218 28.8923C30.599 27.2513 30.8376 25.3744 30.8376 23.2615C30.8376 21.0667 30.5679 19.1692 30.0284 17.5692C29.5097 15.9692 28.7939 14.7385 27.8809 13.8769C26.9887 12.9949 25.9928 12.5538 24.8931 12.5538Z" fill="white"/>
</svg>
